<?xml version="1.0"?>
<svg xmlns="http://www.w3.org/2000/svg" xmlns:xlink="http://www.w3.org/1999/xlink" version="1.1" viewBox="0 0 252 252" width="100px" height="100px"><g fill="none" fill-rule="nonzero" stroke="none" stroke-width="1" stroke-linecap="butt" stroke-linejoin="miter" stroke-miterlimit="10" stroke-dasharray="" stroke-dashoffset="0" font-family="none" font-weight="none" font-size="none" text-anchor="none" style="mix-blend-mode: normal"><path d="M0,252v-252h252v252z" fill="none"/><g fill="#2980b9"><g id="surface1"><path d="M150.53063,15.15938c-0.53156,0.07875 -1.06313,0.23625 -1.575,0.4725c-4.33125,2.14594 -9.25313,8.52469 -10.19813,9.78469c-0.05906,0.07875 -0.11812,0.1575 -0.1575,0.23625c-4.86281,7.28437 -7.46156,15.80906 -7.56,24.68812c-0.05906,6.65438 1.24031,13.24969 3.87844,19.60875c6.1425,14.74594 18.9,26.95219 34.07906,32.66156c0.51188,0.17719 1.00406,0.35438 1.89,0.66938c0.07875,0.03937 0.82688,0.27562 0.945,0.29531l0.55125,0.19688c0.7875,0.25594 1.59469,0.51187 2.38219,0.66937c3.99656,0.80719 7.89469,1.26 11.55656,1.37813c0.63,0 1.26,0.01969 1.89,0.01969c27.62156,0 38.33156,-19.49062 41.895,-25.9875c0.35438,-0.63 0.61031,-1.14187 0.84656,-1.45687c0,-0.01969 0,-0.01969 0.01969,-0.03938c1.55531,-2.30344 0.96469,-5.43375 -1.33875,-7.00875c-2.28375,-1.55531 -5.41406,-0.96469 -6.98906,1.33875h-0.01969c-7.36312,10.84781 -19.96312,14.13563 -37.42594,9.80438c-1.29938,-0.315 -2.71688,-0.80719 -3.97688,-1.27969c-1.65375,-0.59062 -3.3075,-1.27969 -4.84312,-2.02781c-3.05156,-1.51594 -5.92594,-3.32719 -8.52469,-5.33531c-15.35625,-11.91094 -21.36094,-36.6975 -12.38344,-51.01031c1.20094,-1.90969 0.98438,-4.39031 -0.53156,-6.06375c-1.14188,-1.26 -2.79563,-1.83094 -4.41,-1.61437zM105.87938,25.2c-1.14188,-0.01969 -2.30344,0.35438 -3.24844,1.14188c-7.61906,6.20156 -15.41531,16.36031 -15.75,16.77375c-0.03937,0.07875 -0.07875,0.13781 -0.13781,0.21656c-13.78125,20.06156 -14.82469,48.60844 -2.63813,72.72563c1.90969,3.81937 4.07531,7.46156 6.37875,10.80844l0.68906,0.98438c1.94906,2.85469 4.13437,6.08344 6.93,8.60344c0.96469,1.1025 2.00812,2.16562 3.03187,3.18937l0.49219,0.51188l0.41344,0.41344c1.04344,1.00406 2.10656,2.02781 3.20906,3.01219h0.01969c0.07875,0.11813 0.19687,0.19688 0.29531,0.29531c1.24031,1.1025 2.50031,2.14594 4.17375,3.465l0.45281,0.33469c1.29938,1.04344 2.61844,2.02781 3.97688,2.9925c0.13781,0.09844 0.27562,0.19688 0.41344,0.29531c0.4725,0.315 0.945,0.61031 1.4175,0.945l0.4725,0.315l0.55125,0.35438c1.00406,0.66937 1.98844,1.27969 3.38625,2.08687c0.90563,0.55125 1.87031,1.1025 2.50031,1.4175c0.27562,0.1575 0.57094,0.315 1.26,0.68906l1.53562,0.80719c0.07875,0.03938 0.43313,0.19688 0.51188,0.23625c1.00406,0.51188 2.0475,1.00406 3.09094,1.47656l1.59469,0.70875c1.04344,0.45281 2.10656,0.88594 3.40594,1.37812l0.59062,0.21656c0.03938,0.03938 0.53156,0.21656 0.57094,0.23625c0.945,0.33469 1.90969,0.66938 2.87438,0.98438l2.205,0.72844c1.1025,0.37406 2.38219,0.80719 3.78,1.04344c6.87094,1.14188 13.545,1.7325 19.86469,1.7325c0.74813,0 1.49625,-0.01969 2.22469,-0.01969c55.63688,-1.22063 70.10719,-48.49031 70.245,-48.96281c0.68906,-2.38219 -0.43312,-4.92187 -2.6775,-5.985c-2.24437,-1.06312 -4.92187,-0.315 -6.31969,1.7325c-14.09625,20.59313 -40.75312,29.295 -67.90219,22.12875c-1.26,-0.315 -2.48063,-0.66937 -3.99656,-1.16156c-0.25594,-0.07875 -0.4725,-0.1575 -0.88594,-0.315c-0.88594,-0.27562 -1.75219,-0.57094 -2.73656,-0.945l-1.39781,-0.53156c-0.80719,-0.315 -1.61437,-0.63 -2.59875,-1.06313l-0.64969,-0.29531c-1.20094,-0.51187 -2.3625,-1.08281 -3.40594,-1.59469l-2.87438,-1.49625c-0.64969,-0.315 -1.22062,-0.66937 -2.10656,-1.20094l-0.49219,-0.27563l-0.49219,-0.29531c-0.72844,-0.43313 -1.45687,-0.88594 -2.12625,-1.35844l-0.4725,-0.29531c-0.03937,-0.01969 -0.43312,-0.29531 -0.4725,-0.33469c-0.59062,-0.37406 -1.16156,-0.74812 -1.71281,-1.1025c-1.22062,-0.86625 -2.42156,-1.77187 -3.81937,-2.87437l-0.55125,-0.45281c-12.99375,-10.37531 -22.60125,-24.23531 -27.10969,-39.09937c-4.19344,-13.64344 -1.08281,-31.5 8.32781,-47.76188c1.22063,-2.10656 0.76781,-4.78406 -1.1025,-6.35906c-0.92531,-0.7875 -2.06719,-1.20094 -3.20906,-1.20094zM50.41969,40.32c-1.20094,0 -2.42156,0.43313 -3.38625,1.29938c-9.62719,8.64281 -16.83281,19.845 -17.62031,21.12469c-20.59313,29.98406 -16.61625,76.58437 -2.48063,105.07219c0.27563,0.59063 0.57094,1.16156 0.86625,1.7325l0.19688,0.315c0.25594,0.57094 0.55125,1.16156 0.64969,1.27969c0.1575,0.37406 0.39375,0.7875 0.49219,0.90563c0.23625,0.49219 0.4725,0.92531 0.90563,1.67344l1.61437,2.77594c0.23625,0.37406 0.4725,0.76781 0.55125,0.90563c0.315,0.51187 0.64969,1.04344 0.98438,1.575l0.7875,1.26c0.23625,0.37406 0.4725,0.70875 0.63,0.90562c0.7875,1.22063 1.575,2.44125 2.44125,3.60281c0.03937,0.05906 0.07875,0.09844 0.11812,0.13781l0.315,0.43312c0.70875,1.02375 1.43719,2.00813 2.08688,2.81531l2.87437,3.64219c0.03938,0.03938 0.35438,0.41344 0.37406,0.45281l0.41344,0.4725c0.86625,1.06313 1.79156,2.12625 2.71688,3.15c0.13781,0.1575 0.27562,0.29531 0.41344,0.45281c0.88594,0.96469 1.79156,1.92937 2.73656,2.93344l0.90562,0.86625c0.74813,0.7875 1.49625,1.55531 2.28375,2.28375c0,0.01969 0.37406,0.37406 0.37406,0.37406l0.7875,0.72844c0.945,0.90563 1.92937,1.81125 2.6775,2.44125c0.03937,0.05906 0.74812,0.66938 0.80719,0.70875c0.92531,0.82688 1.85063,1.61438 2.79563,2.38219l4.82344,3.81938c0.80719,0.59062 1.63406,1.18125 2.57906,1.87031c0.315,0.23625 0.64969,0.4725 0.98437,0.68906c0.13781,0.11813 0.29531,0.23625 0.39375,0.29531l3.6225,2.42156c1.31906,0.86625 2.63813,1.67344 4.2525,2.63812l0.86625,0.49219c1.00406,0.59062 2.02781,1.18125 2.9925,1.69312c0.57094,0.315 1.14188,0.59063 1.63406,0.84656c0.68906,0.37406 1.43719,0.7875 2.57906,1.33875c0.09844,0.05906 0.90562,0.45281 1.00406,0.49219c1.14188,0.57094 2.30344,1.1025 3.76031,1.75219c0,0.01969 0.4725,0.23625 0.4725,0.23625c1.33875,0.57094 2.63813,1.12219 4.35094,1.81125c0.27563,0.11813 0.55125,0.21656 0.61031,0.23625c1.22063,0.4725 2.50031,0.945 3.54375,1.31906c0.09844,0.03938 0.63,0.25594 0.72844,0.29531c1.39781,0.4725 2.77594,0.92531 4.54781,1.47656c0.29531,0.09844 0.61031,0.19687 0.64969,0.19687l1.00406,0.315c1.22063,0.37406 2.44125,0.76781 3.76031,1.02375c9.37125,1.71281 18.52594,2.59875 27.18844,2.59875h0.01969c72.19406,0 95.18906,-58.09781 95.42531,-58.68844c0.88594,-2.34281 -0.07875,-4.98094 -2.28375,-6.20156c-2.16562,-1.20094 -4.92187,-0.63 -6.4575,1.35844c-18.52594,24.39281 -53.47125,33.44906 -93.47625,24.255c-0.96469,-0.23625 -1.94906,-0.51187 -2.91375,-0.80719l-1.89,-0.57094c-1.27969,-0.39375 -2.55937,-0.82688 -3.79969,-1.26c-0.01969,0 -0.59063,-0.21656 -0.59063,-0.21656c-1.1025,-0.37406 -2.205,-0.80719 -3.16969,-1.18125l-1.1025,-0.43312c-1.22062,-0.49219 -2.44125,-1.00406 -3.6225,-1.53563l-0.68906,-0.29531c-1.06312,-0.49219 -2.08687,-0.96469 -3.11062,-1.47656c-0.07875,-0.03938 -0.88594,-0.43313 -0.96469,-0.45281c-0.70875,-0.35438 -1.4175,-0.72844 -2.32313,-1.22063l-4.11469,-2.205c-0.41344,-0.27562 -0.84656,-0.53156 -1.26,-0.74812c-1.24031,-0.76781 -2.52,-1.53563 -3.78,-2.34281c-0.29531,-0.17719 -0.55125,-0.37406 -1.04344,-0.70875c-0.86625,-0.55125 -1.71281,-1.12219 -2.95313,-1.98844l-0.49219,-0.35438c-0.84656,-0.59062 -1.67344,-1.22062 -2.3625,-1.7325c-0.43313,-0.315 -0.86625,-0.66937 -1.575,-1.20094c-0.63,-0.49219 -1.26,-0.96469 -1.85063,-1.43719l-1.1025,-0.90563c-0.92531,-0.74812 -1.79156,-1.53562 -2.69719,-2.30344c-0.11812,-0.11812 -0.21656,-0.19687 -0.35437,-0.29531c-1.00406,-0.92531 -2.02781,-1.85062 -3.24844,-3.01219l-3.56344,-3.54375c-0.86625,-0.88594 -1.7325,-1.79156 -2.71687,-2.87437c-0.90563,-1.00406 -1.77188,-2.00813 -2.93344,-3.38625l-2.12625,-2.59875c-0.25594,-0.37406 -0.53156,-0.74813 -0.86625,-1.14188c-0.72844,-0.98437 -1.45687,-1.94906 -2.18531,-2.97281c-19.60875,-27.01125 -24.7275,-83.39625 -9.45,-104.04844c1.53562,-2.06719 1.26,-4.98094 -0.66938,-6.73312c-0.945,-0.86625 -2.16562,-1.29938 -3.36656,-1.29938z"/></g></g><g fill="#000000"><path d="M64.5,115.295h3.52v22.98v0c0,3.96 -1.79667,5.94 -5.39,5.94v0v0c-0.77333,0 -1.49,-0.11333 -2.15,-0.34v0v-2.82v0c0.40667,0.1 0.94,0.15 1.6,0.15v0v0c0.78667,0 1.38667,-0.21 1.8,-0.63v0v0c0.41333,-0.42667 0.62,-1.16667 0.62,-2.22v0zM64.14,109.825v0v0c0,-0.56 0.17333,-1.04 0.52,-1.44v0v0c0.35333,-0.4 0.86667,-0.6 1.54,-0.6v0v0c0.68,0 1.2,0.19667 1.56,0.59v0v0c0.35333,0.39333 0.53,0.87667 0.53,1.45v0v0c0,0.57333 -0.17667,1.05 -0.53,1.43v0v0c-0.36,0.38 -0.88,0.57 -1.56,0.57v0v0c-0.68667,0 -1.20333,-0.19 -1.55,-0.57v0v0c-0.34,-0.38 -0.51,-0.85667 -0.51,-1.43zM95.43,121.155v1.77v0c0,2.68 -0.42667,4.98667 -1.28,6.92v0v0c-0.85333,1.94 -2.04667,3.45667 -3.58,4.55v0l4.95,3.88l-2.49,2.3l-5.85,-4.64v0c-0.91333,0.22667 -1.87667,0.34 -2.89,0.34v0v0c-2.18667,0 -4.12333,-0.53667 -5.81,-1.61v0v0c-1.68667,-1.07333 -2.99667,-2.60333 -3.93,-4.59v0v0c-0.93333,-1.98667 -1.41333,-4.28667 -1.44,-6.9v0v-2v0c0,-2.66667 0.46333,-5.02333 1.39,-7.07v0v0c0.92667,-2.04 2.23667,-3.60333 3.93,-4.69v0v0c1.69333,-1.08667 3.63333,-1.63 5.82,-1.63v0v0c2.23333,0 4.19667,0.54 5.89,1.62v0v0c1.69333,1.08 2.99667,2.63333 3.91,4.66v0v0c0.92,2.02 1.38,4.38333 1.38,7.09zM91.77,123.195v-2.06v0c0,-3.26 -0.65,-5.77667 -1.95,-7.55v0v0c-1.3,-1.77333 -3.15667,-2.66 -5.57,-2.66v0v0c-2.3,0 -4.11333,0.88 -5.44,2.64v0v0c-1.32667,1.76 -2.01,4.2 -2.05,7.32v0v2.04v0c0,3.17333 0.66333,5.67333 1.99,7.5v0v0c1.32667,1.83333 3.17333,2.75 5.54,2.75v0v0c2.36,0 4.18667,-0.86 5.48,-2.58v0v0c1.29333,-1.72 1.96,-4.18667 2,-7.4zM113.31,135.895l-0.08,-2.04v0c-1.37333,1.61333 -3.38667,2.42 -6.04,2.42v0v0c-2.19333,0 -3.86333,-0.63667 -5.01,-1.91v0v0c-1.15333,-1.28 -1.73667,-3.17 -1.75,-5.67v0v-13.4h3.53v13.31v0c0,3.12 1.27,4.68 3.81,4.68v0v0c2.68667,0 4.47667,-1.00333 5.37,-3.01v0v-14.98h3.52v20.6zM130.56,136.275v0v0c-2.79333,0 -5.06667,-0.91667 -6.82,-2.75v0v0c-1.74667,-1.83333 -2.62,-4.28667 -2.62,-7.36v0v-0.65v0c0,-2.04 0.39,-3.86333 1.17,-5.47v0v0c0.78,-1.60667 1.87,-2.86333 3.27,-3.77v0v0c1.40667,-0.91333 2.92667,-1.37 4.56,-1.37v0v0c2.68,0 4.76333,0.88333 6.25,2.65v0v0c1.48667,1.76667 2.23,4.29333 2.23,7.58v0v1.47h-13.96v0c0.04667,2.02667 0.64,3.66667 1.78,4.92v0v0c1.13333,1.25333 2.57667,1.88 4.33,1.88v0v0c1.24667,0 2.3,-0.25667 3.16,-0.77v0v0c0.86667,-0.50667 1.62333,-1.17667 2.27,-2.01v0l2.15,1.67v0c-1.72667,2.65333 -4.31667,3.98 -7.77,3.98zM130.12,117.805v0v0c-1.42,0 -2.61333,0.51667 -3.58,1.55v0v0c-0.96,1.03333 -1.55667,2.48333 -1.79,4.35v0h10.32v-0.26v0c-0.1,-1.79333 -0.58,-3.18 -1.44,-4.16v0v0c-0.86667,-0.98667 -2.03667,-1.48 -3.51,-1.48zM152.63,115.175v3.28v0c-0.53333,-0.09333 -1.11,-0.14 -1.73,-0.14v0v0c-2.31333,0 -3.88333,0.98667 -4.71,2.96v0v14.62h-3.52v-20.6h3.43l0.06,2.38v0c1.15333,-1.84667 2.79,-2.77 4.91,-2.77v0v0c0.68667,0 1.20667,0.09 1.56,0.27zM157.81,115.295l5.14,15.44l4.8,-15.44h3.77l-8.28,23.78v0c-1.28667,3.42667 -3.32333,5.14 -6.11,5.14v0l-0.67,-0.06l-1.32,-0.24v-2.86l0.96,0.08v0c1.19333,0 2.12333,-0.24333 2.79,-0.73v0v0c0.66667,-0.48 1.21333,-1.36 1.64,-2.64v0l0.78,-2.1l-7.35,-20.37z"/></g></g></svg>
