<?xml version="1.0" standalone="no"?>
<!DOCTYPE svg PUBLIC "-//W3C//DTD SVG 20010904//EN"
 "http://www.w3.org/TR/2001/REC-SVG-20010904/DTD/svg10.dtd">
<svg version="1.0" xmlns="http://www.w3.org/2000/svg"
 width="148.000000pt" height="113.000000pt" viewBox="0 0 148.000000 113.000000"
 preserveAspectRatio="xMidYMid meet">
<metadata>
Created by potrace 1.15, written by Peter Selinger 2001-2017
</metadata>
<g transform="translate(0.000000,113.000000) scale(0.100000,-0.100000)"
fill="#000000" stroke="none">
<path d="M305 1118 c-21 -12 -35 -28 -35 -40 0 -5 256 -8 570 -8 l570 0 0
-300 0 -300 -420 0 -420 0 0 -90 0 -90 430 0 c417 0 431 1 450 20 19 19 20 33
20 399 l0 380 -26 20 c-26 21 -35 21 -573 21 -388 -1 -552 -4 -566 -12z"/>
<path d="M63 1000 c-12 -5 -26 -18 -32 -29 -7 -13 -11 -163 -11 -444 0 -414 0
-425 21 -451 l20 -26 203 0 c184 0 204 2 219 18 15 17 17 63 17 460 l0 441
-26 20 c-25 20 -39 21 -208 20 -99 0 -191 -4 -203 -9z m385 -112 l3 -58 -186
0 -185 0 0 60 0 60 183 -2 182 -3 3 -57z m0 -150 l3 -28 -185 0 -186 0 0 30 0
30 183 -2 182 -3 3 -27z"/>
<path d="M686 135 l-56 -85 236 0 c185 0 234 3 228 13 -4 6 -29 45 -56 85
l-49 72 -123 0 -123 0 -57 -85z"/>
</g>
</svg>
